<svg width="18" height="18" viewBox="0 0 18 18" fill="none" xmlns="http://www.w3.org/2000/svg">
<g id="iconoir_search">
<path id="Shape" d="M13.193 12.3572C12.9001 12.0643 12.4252 12.0643 12.1323 12.3572C11.8394 12.6501 11.8394 13.125 12.1323 13.4179L13.193 12.3572ZM16.0199 17.3054C16.3128 17.5983 16.7877 17.5983 17.0806 17.3054C17.3734 17.0125 17.3734 16.5377 17.0806 16.2448L16.0199 17.3054ZM2.95195 12.6016L3.48231 12.0713L3.48226 12.0713L2.95195 12.6016ZM5.11403 14.0464L4.82696 14.7393L4.82704 14.7393L5.11403 14.0464ZM10.2147 14.0464L10.5017 14.7393L10.5018 14.7393L10.2147 14.0464ZM12.3768 12.6016L11.8465 12.0713L11.8464 12.0714L12.3768 12.6016ZM13.8215 10.4396L14.5144 10.7267L14.5144 10.7266L13.8215 10.4396ZM12.3768 3.17684L11.8464 3.70716L11.8465 3.70719L12.3768 3.17684ZM12.1323 13.4179L16.0199 17.3054L17.0806 16.2448L13.193 12.3572L12.1323 13.4179ZM0.25 7.88927C0.25 8.8629 0.441775 9.82702 0.814377 10.7266L2.20021 10.1526C1.90297 9.43499 1.75 8.66591 1.75 7.88927H0.25ZM0.814377 10.7266C1.18699 11.6262 1.73315 12.4436 2.42165 13.132L3.48226 12.0713C2.93307 11.5222 2.49743 10.8702 2.20021 10.1526L0.814377 10.7266ZM2.4216 13.132C3.11012 13.8205 3.92748 14.3666 4.82696 14.7393L5.40111 13.3535C4.68347 13.0562 4.03147 12.6206 3.48231 12.0713L2.4216 13.132ZM4.82704 14.7393C5.72658 15.1119 6.69075 15.3036 7.66438 15.3036V13.8036C6.88773 13.8036 6.1186 13.6507 5.40102 13.3535L4.82704 14.7393ZM7.66438 15.3036C8.63803 15.3036 9.60213 15.1119 10.5017 14.7393L9.92776 13.3535C9.2101 13.6507 8.44102 13.8036 7.66438 13.8036V15.3036ZM10.5018 14.7393C11.4013 14.3666 12.2187 13.8205 12.9071 13.1319L11.8464 12.0714C11.2973 12.6206 10.6453 13.0562 9.92767 13.3535L10.5018 14.7393ZM12.907 13.132C13.5956 12.4436 14.1417 11.6262 14.5144 10.7267L13.1286 10.1526C12.8313 10.8702 12.3957 11.5222 11.8465 12.0713L12.907 13.132ZM14.5144 10.7266C14.887 9.82701 15.0788 8.86291 15.0788 7.88927H13.5788C13.5788 8.66591 13.4258 9.43499 13.1286 10.1526L14.5144 10.7266ZM15.0788 7.88927C15.0788 5.92286 14.2977 4.03697 12.9071 2.64649L11.8465 3.70719C12.9557 4.81633 13.5788 6.32066 13.5788 7.88927H15.0788ZM12.9071 2.64651C11.5167 1.25604 9.6308 0.474884 7.66438 0.474884V1.97488C9.23297 1.97488 10.7373 2.598 11.8464 3.70716L12.9071 2.64651ZM7.66438 0.474884C5.69796 0.474884 3.81209 1.25604 2.42162 2.64651L3.48228 3.70717C4.59145 2.598 6.09579 1.97488 7.66438 1.97488V0.474884ZM2.42162 2.64651C1.03115 4.03697 0.25 5.92285 0.25 7.88927H1.75C1.75 6.32067 2.37312 4.81633 3.48228 3.70717L2.42162 2.64651Z" fill="#767676"/>
</g>
</svg>
